<svg xmlns="http://www.w3.org/2000/svg" viewBox="0 0 219 219"><defs><style>.a{fill:#2dc1e6;}.b{fill:#fafdfe;}</style></defs><circle class="a" cx="109.5" cy="109.5" r="109.5"/><path class="b" d="M46.4,135c-10.6,29.7,57.1,45.4,73.3,27.2C53.2,142.9,89,98,45.1,67.8c-4.4-1.6-3.2-4.9,1.3-4.2,7.4-1.1,12.2,3.5,18.9,5.4C64,54.6,60.7,40.8,71.2,28.1c.4,9.8,1.9,17.8,6.3,26.8,2.3-17,4.6-32.5,17.1-43.7.5,3.7-2.8,19.9,4.6,14.6,16.6-12,45.2-18.4,60.5-2-.9,1.7-2.1.6-3,.4A56.9,56.9,0,0,0,140.8,23c-9.6.5-17.2,4.4-23,12.2-27.7,36,3.9,95,46.7,96,11.9,2.6,31.6-18.5,13.5-23-1.5-.3-3.3.3-4.7-1.1.8-2.3,3-2,4.5-2.6,10.4-3.5,18.6-9.6,23.4-19.6.7-3.3,3.8-3.1,3.6.5,4.3,28.2-1.1,51.6-12.4,69.8a96.3,96.3,0,0,1-85.1,45.1c-45.5-1.9-78.7-37.1-82-54.9-2.6-13.8-2.7-21.2-2.7-21.2-.1-8.5,1-12.3-1-19.2S16,93.8,16.8,93.2s4,2.3,6.6,5.8c5.5,7.3,4.4,13.6,8.1,15,1.4.5,3.8.6,8.1-2.7.9,0-1.2,3.1-1.7,3.8-2.8,6.4-5.7,16.9.7,21.8,3.7,1,8.9-11.5,9.7-9.2C49.4,128.1,47.7,131.9,46.4,135Z"/></svg>