<?xml version="1.0" encoding="UTF-8"?>
<svg version="1.1" xmlns="http://www.w3.org/2000/svg" width="1000" height="1000">
<path d="M0 0 C330 0 660 0 1000 0 C1000 330 1000 660 1000 1000 C670 1000 340 1000 0 1000 C0 670 0 340 0 0 Z " fill="#2CC0E4" transform="translate(0,0)"/>
<path d="M0 0 C5.69992881 3.19627933 10.00910108 7.73143842 14.58823776 12.33934879 C15.4438136 13.19231734 16.29938944 14.0452859 17.18089181 14.92410198 C19.55611147 17.29410798 21.9267687 19.66851636 24.29561562 22.04488188 C26.87328059 24.62852084 29.45674441 27.20635039 32.03947663 29.78492206 C36.56566253 34.30542127 41.08811512 38.8296287 45.60814857 43.35627937 C52.32942427 50.08736774 59.05641017 56.81272751 65.78456168 63.53694218 C77.10271399 74.84881666 88.41613352 86.16541351 99.72679901 97.48477364 C110.92876252 108.69534646 122.13257287 119.90406777 133.33893585 131.11024284 C134.03556559 131.80686494 134.73219534 132.50348704 135.44993507 133.2212189 C138.27762534 136.04886826 141.10532796 138.87650527 143.93304743 141.70412544 C170.4665998 168.23677145 196.99472057 194.77484195 223.52012538 221.31563305 C247.10111034 244.91024593 270.68579011 268.50115893 294.27392578 292.08862305 C295.78882644 293.6034833 297.30372708 295.11834357 298.81862769 296.63320387 C299.94202094 297.7565666 299.94202094 297.7565666 301.088109 298.90262352 C304.85789198 302.6723057 308.62766985 306.44199299 312.39744186 310.21168613 C313.14111565 310.95534321 313.88478944 311.69900028 314.65099879 312.46519242 C334.34666757 332.16049628 354.03988581 351.85825005 373.73226857 371.55683941 C374.43246648 372.25725759 375.13266439 372.95767577 375.85408042 373.67931875 C378.66989518 376.49602176 381.48570986 379.31272483 384.30151158 382.12944087 C394.10951977 391.9406122 403.91835602 401.75095497 413.72772499 411.56076576 C426.36508522 424.19872229 439.00075217 436.83836792 451.63348141 449.48095364 C458.31910292 456.17170103 465.00608686 462.86107983 471.69503024 469.54850628 C476.15656651 474.00931059 480.61629242 478.47191925 485.07451523 482.93603508 C487.61876335 485.48354696 490.163808 488.03024938 492.71102938 490.57478864 C495.44842063 493.30933923 498.18197599 496.04770311 500.9151268 498.78649235 C501.71514345 499.58445367 502.51516009 500.382415 503.33941966 501.20455697 C504.06338575 501.9312828 504.78735184 502.65800863 505.53325629 503.40675646 C506.15926792 504.03305959 506.78527956 504.65936272 507.43026124 505.30464474 C510.16890319 508.2624433 511.32076535 510.3366552 511.4375 514.3125 C511.47746094 515.05113281 511.51742187 515.78976562 511.55859375 516.55078125 C510.4350884 521.47692008 507.44122731 524.04442555 503.38305664 526.73510742 C500.06037802 528.70081725 496.69635862 530.58031746 493.3125 532.4375 C492.05474791 533.13984719 490.79776073 533.84356576 489.54150391 534.54858398 C486.9583406 535.99744288 484.37245571 537.44125474 481.78466797 538.88183594 C476.11270079 542.0471241 470.49495092 545.3060356 464.875 548.5625 C462.72669563 549.80361589 460.57825802 551.04450118 458.4296875 552.28515625 C457.36975586 552.89762207 456.30982422 553.51008789 455.21777344 554.14111328 C449.81329355 557.26324605 444.40652588 560.38141204 439 563.5 C436.8333225 564.74998122 434.66665583 565.99998121 432.5 567.25 C393.5 589.75 393.5 589.75 390.24951172 591.62524414 C388.08442929 592.87435518 385.91939018 594.12354129 383.75439453 595.37280273 C378.31384294 598.51202309 372.87252784 601.64990563 367.4296875 604.78515625 C356.97793801 610.80747329 346.53700452 616.84669337 336.125 622.9375 C326.85500223 628.35921178 317.54168248 633.70204915 308.21154785 639.01922607 C299.0871716 644.22045129 289.99867226 649.48027878 280.93310547 654.78344727 C270.40915375 660.93766742 259.84619863 667.02369996 249.28222656 673.10888672 C243.85340058 676.23680148 238.42680719 679.36858448 233 682.5 C230.83334417 683.75001879 228.6666775 685.00001878 226.5 686.25 C224.89125 687.178125 224.89125 687.178125 223.25 688.125 C185.33333333 710 147.41666667 731.875 109.5 753.75 C107.8900415 754.6788501 107.8900415 754.6788501 106.24755859 755.62646484 C104.08909502 756.87169484 101.93056677 758.11681272 99.77197266 759.36181641 C93.09168697 763.21501246 86.41383707 767.07238692 79.73803711 770.93334961 C76.46263532 772.82440373 73.18270299 774.70740634 69.90234375 776.58984375 C66.28599883 778.66798339 62.69426878 780.77706896 59.12890625 782.94140625 C58.40848145 783.37018066 57.68805664 783.79895508 56.94580078 784.24072266 C55.672871 784.9992811 54.40824854 785.77210759 53.15576172 786.56396484 C48.59426555 789.2471204 44.1710016 789.89370057 39 789 C35.93376463 787.276072 33.59646396 785.19292792 32 782 C30.68934325 773.5035432 33.53109871 768.15163416 38 761.125 C39.29352021 759.00373332 40.58510954 756.8812883 41.875 754.7578125 C42.55304688 753.65469727 43.23109375 752.55158203 43.9296875 751.41503906 C47.05513936 746.25951777 50.02595853 741.01891385 52.99560547 735.77288818 C54.67802764 732.80319222 56.36978344 729.83883719 58.0625 726.875 C58.39435303 726.29386444 58.72620605 725.71272888 59.06811523 725.11398315 C62.90261263 718.40820224 66.80765932 711.74399732 70.7109375 705.078125 C75.19166265 697.41426026 79.60494224 689.71314165 84 682 C89.53985933 672.27875494 95.13374932 662.59105132 100.78344727 652.93310547 C106.93766742 642.40915375 113.02369996 631.84619863 119.10888672 621.28222656 C122.23680148 615.85340058 125.36858448 610.42680719 128.5 605 C129.75001879 602.83334417 131.00001878 600.6666775 132.25 598.5 C134.75 594.16666667 137.25 589.83333333 139.75 585.5 C140.6790918 583.88955811 140.6790918 583.88955811 141.62695312 582.24658203 C142.8704051 580.09128689 144.11389436 577.93601327 145.35742188 575.78076172 C148.24462875 570.77662326 151.1315043 565.7722948 154.01696777 560.76715088 C155.02619104 559.01658759 156.03553836 557.26609589 157.04492188 555.515625 C158.3016766 553.33607835 159.55820586 551.15640168 160.81445312 548.9765625 C161.39130859 547.97625 161.96816406 546.9759375 162.5625 545.9453125 C163.12308105 544.97013672 163.68366211 543.99496094 164.26123047 542.99023438 C165.47768006 540.89825535 166.71267421 538.81699984 167.96142578 536.74414062 C168.5954834 535.68646484 169.22954102 534.62878906 169.8828125 533.5390625 C170.45918457 532.5898291 171.03555664 531.6405957 171.62939453 530.66259766 C173.74936129 526.54425824 174.28777843 523.45236135 173 519 C171.66657464 517.04585433 171.66657464 517.04585433 169.92417622 515.21949291 C169.28887757 514.52329794 168.65357892 513.82710297 167.9990288 513.10981119 C164.83026108 509.76543637 161.6078125 506.48385151 158.33818054 503.2381134 C157.59857127 502.49976641 156.85896201 501.76141941 156.09694034 501.00069827 C153.63820747 498.54730814 151.17590904 496.09752875 148.71362305 493.64770508 C146.94222073 491.88150024 145.17106314 490.11504992 143.40013123 488.34837341 C139.59666524 484.55482181 135.79177078 480.76271155 131.98575401 476.97171974 C125.96978431 470.97920635 119.95907246 464.98143418 113.94917297 458.98283386 C111.88980352 456.9274648 109.83039992 454.87212995 107.7709856 452.81680584 C106.99923904 452.04658812 106.99923904 452.04658812 106.21190163 451.26081044 C100.36797766 445.42860686 94.52297218 439.59748772 88.67749023 433.7668457 C88.14366271 433.23437061 87.60983518 432.70189551 87.05983106 432.15328481 C78.39287729 423.50855181 69.72210456 414.86765699 61.05038359 406.22770647 C52.13792273 397.34761871 43.23121475 388.46178819 34.32941657 379.57101172 C28.84250374 374.09132277 23.35089977 368.61642094 17.85317913 363.14757504 C13.64608828 358.96170291 9.44680951 354.76805454 5.25042152 350.57145119 C3.52684392 348.85030107 1.80067785 347.13173868 0.07177734 345.41593552 C-2.28347718 343.07778595 -4.629362 340.73062204 -6.97309875 338.38093567 C-8.00775401 337.36041138 -8.00775401 337.36041138 -9.0633114 336.31927043 C-9.68998781 335.68723758 -10.31666422 335.05520472 -10.96233082 334.40401936 C-11.50457414 333.86345726 -12.04681747 333.32289517 -12.60549241 332.76595241 C-15.63787603 328.92585487 -16.25021541 325.24620053 -16.25726891 320.45081425 C-16.2637178 319.3403228 -16.27016669 318.22983135 -16.276811 317.08568865 C-16.2737138 315.87091497 -16.2706166 314.65614128 -16.26742554 313.40455627 C-16.27195665 312.11003145 -16.27648776 310.81550662 -16.28115618 309.48175377 C-16.29339167 305.89030965 -16.29312509 302.29895864 -16.29076743 298.70749843 C-16.29035941 294.83352845 -16.30139691 290.95958838 -16.31088257 287.08563232 C-16.32749584 279.49695431 -16.33299224 271.90830737 -16.33410732 264.31961269 C-16.33505751 258.15225354 -16.33916633 251.98490465 -16.34550858 245.81754875 C-16.3631208 228.33548176 -16.37234731 210.85343933 -16.37084763 193.37136341 C-16.37076772 192.42888917 -16.3706878 191.48641493 -16.37060547 190.51538086 C-16.37052371 189.57175735 -16.37044195 188.62813383 -16.37035771 187.65591567 C-16.3695445 172.3572098 -16.3886909 157.05860231 -16.4168822 141.7599249 C-16.44559437 126.05481826 -16.45942346 110.34975964 -16.45769465 94.64462608 C-16.45703024 85.82592898 -16.46254508 77.00733506 -16.48405075 68.18866158 C-16.50224049 60.68160137 -16.50662801 53.17469113 -16.4930319 45.66761846 C-16.48649142 41.83695634 -16.48642373 38.00658211 -16.5037384 34.17594719 C-16.52231014 30.02455486 -16.50994323 25.8738322 -16.49447632 21.72242737 C-16.50476344 20.50988441 -16.51505057 19.29734144 -16.52564943 18.04805475 C-16.47355996 11.74415005 -16.32328973 7.74957784 -12 3 C-8.07324125 -0.18385844 -4.98824428 -0.6125914 0 0 Z " fill="#FEFEFE" transform="translate(149,105)"/>
<path d="M0 0 C2.69306078 1.2467874 4.917514 2.4621979 7.375 4.0625 C8.87244504 4.98900717 10.37123353 5.91334523 11.87109375 6.8359375 C12.68690918 7.34350586 13.50272461 7.85107422 14.34326172 8.37402344 C19.31370792 11.41603517 24.3824692 14.2890767 29.4375 17.1875 C31.68642092 18.48268577 33.93511598 19.77826381 36.18359375 21.07421875 C37.31265137 21.72438965 38.44170898 22.37456055 39.60498047 23.04443359 C45.07169975 26.19332051 50.53577646 29.3467849 56 32.5 C62.52232439 36.26365365 69.04513763 40.02644623 75.5703125 43.78515625 C82.04988306 47.51824019 88.52589411 51.25744808 95 55 C96.09812012 55.63421875 97.19624023 56.2684375 98.32763672 56.921875 C101.57452579 58.79876667 104.81886828 60.67998574 108.0625 62.5625 C109.0313916 63.12203369 110.0002832 63.68156738 110.99853516 64.25805664 C127.07118714 73.60678071 127.07118714 73.60678071 130 78 C130.3359375 80.3046875 130.3359375 80.3046875 130.375 82.875 C130.40335938 83.71804688 130.43171875 84.56109375 130.4609375 85.4296875 C129.69340803 89.70963999 127.0623608 92.25337804 123.57177734 94.70654297 C122.6689502 95.21330566 121.76612305 95.72006836 120.8359375 96.2421875 C119.80984375 96.82548828 118.78375 97.40878906 117.7265625 98.00976562 C116.62054687 98.62529297 115.51453125 99.24082031 114.375 99.875 C113.20771729 100.53471848 112.04106118 101.19554672 110.875 101.85742188 C108.4538987 103.23054315 106.03018097 104.5988675 103.60449219 105.96386719 C98.04408522 109.09809082 92.52428849 112.30270324 87 115.5 C84.83352333 116.75032927 82.66685602 118.00032827 80.5 119.25 C79.4275 119.86875 78.355 120.4875 77.25 121.125 C15.5 156.75 15.5 156.75 12.24951172 158.62524414 C10.08442929 159.87435518 7.91939018 161.12354129 5.75439453 162.37280273 C0.31384294 165.51202309 -5.12747216 168.64990563 -10.5703125 171.78515625 C-11.6545752 172.41019043 -12.73883789 173.03522461 -13.85595703 173.67919922 C-16.02006016 174.92594242 -18.18508717 176.17108342 -20.35107422 177.41455078 C-25.82863597 180.56516901 -31.27665375 183.7554825 -36.6875 187.01953125 C-38.30954346 187.99007446 -38.30954346 187.99007446 -39.96435547 188.98022461 C-42.01201135 190.20777422 -44.05318875 191.44622251 -46.08642578 192.69750977 C-51.49297042 195.925671 -55.62689969 198.12126407 -62 198 C-68.33454873 195.72169495 -72.48077361 190.92663517 -77.1105957 186.24584961 C-78.00719406 185.35129562 -78.90379242 184.45674164 -79.82756042 183.53507996 C-82.27619598 181.09155912 -84.71543062 178.63884927 -87.15290856 176.18420482 C-89.70712807 173.61490966 -92.26949067 171.05375989 -94.83085632 168.49159241 C-99.12706088 164.19170115 -103.41759808 159.88622268 -107.7043457 155.5769043 C-113.20998816 150.04233286 -118.72491274 144.51710783 -124.24281025 138.99475765 C-128.98680711 134.24678454 -133.72653627 129.49455774 -138.46557975 124.74164128 C-139.98984762 123.21327317 -141.51470293 121.685493 -143.03963661 120.15778923 C-145.87504812 117.31658402 -148.70599211 114.47096861 -151.53637695 111.62475586 C-152.38362335 110.7763916 -153.23086975 109.92802734 -154.10379028 109.05395508 C-154.87059616 108.28143906 -155.63740204 107.50892303 -156.42744446 106.71299744 C-157.09716939 106.04029784 -157.76689432 105.36759825 -158.45691395 104.67451382 C-161.01961269 101.89354483 -161.20716717 99.88523687 -161.3125 96.1875 C-161.34988281 95.33542969 -161.38726563 94.48335938 -161.42578125 93.60546875 C-160.85379464 90.10533053 -159.36665924 88.61779438 -157 86 C-154.57177734 84.29345703 -154.57177734 84.29345703 -151.8359375 82.7578125 C-150.80968262 82.17443115 -149.78342773 81.5910498 -148.72607422 80.98999023 C-147.06729248 80.06682007 -147.06729248 80.06682007 -145.375 79.125 C-144.20917901 78.46601931 -143.04398768 77.80592358 -141.87939453 77.14477539 C-139.45979031 75.77232851 -137.03755499 74.40470799 -134.61328125 73.04052734 C-129.00933107 69.88221331 -123.44377368 66.65728975 -117.875 63.4375 C-116.25899902 62.50562866 -116.25899902 62.50562866 -114.61035156 61.55493164 C-107.43403037 57.41545109 -100.27593311 53.24564751 -93.125 49.0625 C-83.85669767 43.64177983 -74.54535637 38.29940317 -65.21658325 32.98379517 C-56.97168517 28.28473086 -48.75458432 23.54071598 -40.5625 18.75 C-39.59183594 18.18522949 -38.62117187 17.62045898 -37.62109375 17.03857422 C-32.76662886 14.21307284 -27.93125711 11.36128904 -23.12109375 8.4609375 C-21.24751641 7.34875519 -19.37382347 6.23676759 -17.5 5.125 C-16.23651733 4.34721191 -16.23651733 4.34721191 -14.94750977 3.55371094 C-9.63970386 0.43241859 -6.16823091 -0.91588883 0 0 Z " fill="#FEFEFE" transform="translate(773,396)"/>
</svg>
